<?xml version="1.0" standalone="no"?>
<!DOCTYPE svg PUBLIC "-//W3C//DTD SVG 1.1//EN" "http://www.w3.org/Graphics/SVG/1.1/DTD/svg11.dtd" >
<svg xmlns="http://www.w3.org/2000/svg">
<metadata></metadata>
<defs>
<font id="taringaiconsregular" horiz-adv-x="1228" >
<font-face units-per-em="2048" ascent="1638" descent="-410" />
<missing-glyph horiz-adv-x="500" />
<glyph horiz-adv-x="2048" />
<glyph horiz-adv-x="2048" />
<glyph unicode="&#xd;" horiz-adv-x="2048" />
<glyph unicode=" " />
<glyph unicode="!" d="M-211 401v1239h1655v-1239h-660l-581 -401v401h-414zM-4 608h412v-198l233 157l74 41h522v826h-1241v-826z" />
<glyph unicode="&#x22;" d="M-586.5 226q-3.5 99 49.5 167l977 1174q49 58 144 71q38 0 77 -17t66 -48l1034 -1120q53 -62 66 -166q0 -98 -58 -162q-59 -70 -143 -71.5t-143 63.5l-887 962l-842 -1005q-58 -68 -142 -70t-140 62q-55 61 -58.5 160z" />
<glyph unicode="$" d="M-248 1182q0 -51 37.5 -88t91.5 -37q9 0 29 4l168 -633v-66q0 -13 9.5 -22.5t23.5 -9.5h987q12 0 21 9.5t9 22.5v66l166 633q20 -4 33 -4q52 0 89.5 37t37.5 88q0 54 -37 91.5t-90 37.5q-54 0 -90.5 -37.5t-36.5 -91.5q0 -39 31 -82l-397 -342l-193 633q39 12 64.5 45 t25.5 75q0 54 -37 91.5t-90 37.5q-54 0 -90.5 -37.5t-36.5 -91.5q0 -42 24.5 -74t65.5 -46l-188 -633l-406 342q35 35 35 82q0 54 -37 91.5t-90 37.5q-54 0 -91.5 -37.5t-37.5 -91.5zM-4 997l67 -59l134 -502v-41h-54v41zM78 0h1050v229q0 15 -9 25t-21 10h-987 q-14 0 -23.5 -10t-9.5 -25v-229zM143 66v133h54v-133h-54zM424 676l178 608l27 -88l-162 -555zM842 676l364 319l-14 -69l-338 -295z" />
<glyph unicode="1" d="M-385 145v1196q0 60 42.5 104t102.5 44h150q0 56 45 102.5t106 46.5h297q61 0 106.5 -46.5t45.5 -102.5h743v149h150v-149h145q63 0 107.5 -44t44.5 -104v-1196q0 -60 -44.5 -102.5t-107.5 -42.5h-1788q-60 0 -102.5 42.5t-42.5 102.5zM-139 1094q0 -44 32 -74.5 t78 -30.5q44 0 75.5 30.5t31.5 74.5q0 45 -31.5 77.5t-75.5 32.5q-45 0 -77.5 -32.5t-32.5 -77.5zM274 731q0 -116 45 -221t121 -181t181.5 -120.5t220.5 -44.5q155 0 285.5 75.5t206 206t75.5 285.5q0 115 -44.5 221t-120.5 183t-181 122.5t-221 45.5q-115 0 -220.5 -45.5 t-181.5 -122.5t-121 -183t-45 -221zM469 731q0 156 109 266.5t264 110.5t265 -111t110 -266q0 -156 -109.5 -265.5t-265.5 -109.5q-155 0 -264 109t-109 266zM668 694q0 -92 75 -164q17 121 105.5 207t212.5 101q-73 80 -172 80q-91 0 -156 -66t-65 -158z" />
<glyph unicode="2" d="M-545 158v1194q0 66 45.5 111.5t110.5 45.5h1851q66 0 111 -45.5t45 -111.5v-1194q0 -66 -45 -112t-111 -46h-1851q-65 0 -110.5 46t-45.5 112zM119 283l835 473l-835 469v-942z" />
<glyph unicode="3" d="M6 0v993h111v154q0 133 66.5 246t181 179t249.5 66q204 0 350 -144.5t146 -346.5v-154h113v-993h-1217zM336 993h553v154q0 110 -82 189t-193 79q-114 0 -196 -79t-82 -189v-154zM508 219h182l-47 256q47 23 47 78q0 37 -26.5 63.5t-63.5 26.5q-39 0 -65.5 -26.5 t-26.5 -63.5q0 -55 45 -78z" />
<glyph unicode="4" d="M-173.5 605.5q55.5 -212.5 212.5 -372.5q158 -155 370.5 -210t424 0t368.5 210q158 160 214.5 372.5t0 424t-214.5 369.5q-157 158 -368.5 214.5t-424 0t-370.5 -214.5q-157 -158 -212.5 -369.5t0 -424zM145 553l267 264l-267 264l213 213l265 -264l262 264l213 -213 l-262 -264l262 -264l-213 -209l-262 262l-265 -262z" />
<glyph unicode="5" d="M-158 -2v1640h1364v-184l-182 -182v182h-999v-1274h999v367l182 180v-729h-1364zM481 362l273 91l-183 184zM662 727l182 -180l637 635l-185 180zM1389 1454l184 -182l90 90v92l-90 90h-92z" />
<glyph unicode="6" d="M-197 602l134 219l-134 213l224 123l-4 256l253 -4l123 217l219 -127l218 127l122 -217l256 4l-6 -256l224 -123l-132 -213l132 -219l-224 -123l6 -252l-256 4l-122 -221l-218 131l-219 -131l-123 221l-253 -4l4 252zM434 821q0 -79 56.5 -135.5t134.5 -56.5 q81 0 137.5 56t56.5 136q0 78 -56.5 133.5t-137.5 55.5q-78 0 -134.5 -55.5t-56.5 -133.5z" />
<glyph unicode="7" d="M-569 856q0 -15 10 -27t29 -12h258v-258q0 -15 12.5 -27t26.5 -12h71q19 0 29 11.5t10 27.5v258h266q13 0 23 12.5t10 26.5v78q0 15 -10 27t-23 12h-266v260q0 15 -10 27t-29 12h-71q-13 0 -26 -13t-13 -26v-260h-258q-19 0 -29 -11.5t-10 -27.5v-78zM-195 33 q0 -13 9.5 -23t23.5 -10h1649q18 0 28.5 9.5t10.5 23.5v178q0 59 -15 89t-57 56q-85 50 -254.5 143t-271.5 136v285q73 59 73 163v226q0 146 -87 239.5t-250 93.5q-160 0 -249 -94.5t-89 -238.5v-226q0 -103 77 -170v-278q-101 -44 -286 -144.5t-240 -134.5q-42 -26 -57 -56 t-15 -89v-178z" />
<glyph unicode="8" d="M-205 821q0 -166 64.5 -317t173.5 -260t260 -173.5t317 -64.5q221 0 408 109t296 296.5t109 409.5q0 221 -109 408t-296 296t-408 109q-222 0 -409.5 -109t-296.5 -296t-109 -408zM-70 821q0 138 54 263.5t145 216.5t217 144.5t264 53.5t263.5 -53.5t216.5 -144.5 t144.5 -216.5t53.5 -263.5q0 -137 -53.5 -263t-144.5 -217.5t-216.5 -145.5t-263.5 -54t-264 54t-217 145.5t-145 217.5t-54 263zM66 821q0 -110 43 -210.5t116 -173t173.5 -115.5t211.5 -43q147 0 272 72.5t198 197.5t73 272t-73 272t-198 198t-272 73q-148 0 -273.5 -73 t-198 -198t-72.5 -272zM201 821q0 169 120 288.5t289 119.5q168 0 288 -120t120 -288t-120 -286.5t-288 -118.5q-169 0 -289 118.5t-120 286.5zM340 821q0 -114 78 -192t192 -78q113 0 192 78t79 192q0 113 -79.5 192t-191.5 79q-114 0 -192 -79t-78 -192z" />
<glyph unicode="9" d="M-262 1024v410q0 76 63 140t138 64h819q76 0 139.5 -63.5t63.5 -140.5v-410q0 -76 -63.5 -140.5t-139.5 -64.5h-510l-309 -305v305q-75 0 -138 65t-63 140zM143 514v61l144 144h471q116 0 211.5 93.5t95.5 211.5v104h100q76 0 140.5 -64.5t64.5 -139.5v-410 q0 -75 -64.5 -140t-140.5 -65v-305l-305 305h-512q-75 0 -140 65t-65 140z" />
<glyph unicode="A" d="M0 2v21l2 4h25q2 0 2 -4l-2 2l-2 -2v-3h4v-4l-2 2l-2 -2v-2h4v-4l-2 2h-2v-4h4v-4l-2 2h-2v-4h4q0 -2 -2 -2h-25zM2 2h4v2q0 2 -2 2h-2v-4zM2 8h4v2q0 2 -2 2h-2v-4zM2 14h4v2q0 2 -2 2l-2 -2v-2zM2 20h4v3q0 2 -2 2l-2 -2v-3zM8 2h15v8l-3 2h-12v-10zM8 14h15v9l-3 2 l-12 -2v-9z" />
<glyph unicode="B" d="M-57 100q0 -41 30.5 -70.5t71.5 -29.5h1163q43 0 73 29.5t30 70.5v961q0 41 -22.5 93t-53.5 81l-330 332q-29 30 -81.5 51.5t-94.5 21.5h-684q-41 0 -71.5 -30t-30.5 -70v-1440zM80 135v1366h547v-440q0 -44 30 -74.5t72 -30.5h447v-821h-1096zM215 444q0 -15 11 -25.5 t26 -10.5h752q12 0 22 10.5t10 25.5v70q0 12 -10 22.5t-22 10.5h-752q-15 0 -26 -10.5t-11 -22.5v-70zM215 717q0 -15 11 -24t26 -9h752q13 0 22.5 9.5t9.5 23.5v67q0 17 -9.5 28t-22.5 11h-752q-15 0 -26 -11t-11 -28v-67zM764 1094v401q21 -5 43 -20l336 -338 q14 -18 22 -43h-401z" />
<glyph unicode="C" d="M-332 160q0 -66 46 -113t112 -47h1579q64 0 112 47.5t48 112.5v1327q0 66 -47.5 110.5t-112.5 44.5h-1579q-67 0 -112.5 -44t-45.5 -111v-1327zM-211 186v133q0 26 19.5 44t44.5 18h133q25 0 44 -18t19 -44v-133q0 -25 -19 -43t-44 -18h-133q-25 0 -44.5 18.5t-19.5 42.5 zM-211 571v127q0 23 19.5 42.5t44.5 19.5h133q24 0 43.5 -19t19.5 -43v-127q0 -25 -19 -44t-44 -19h-133q-25 0 -44.5 19t-19.5 44zM-211 944v135q0 25 19.5 43.5t44.5 18.5h133q25 0 44 -18.5t19 -43.5v-135q0 -24 -19 -40.5t-44 -16.5h-133q-25 0 -44.5 16.5t-19.5 40.5z M-211 1327v125q0 26 19.5 46t44.5 20h133q25 0 44 -20t19 -46v-125q0 -24 -19.5 -43.5t-43.5 -19.5h-133q-25 0 -44.5 20t-19.5 43zM170 186v512q0 24 20 43t46 19h759q25 0 44.5 -19.5t19.5 -42.5v-512q0 -24 -19.5 -42.5t-44.5 -18.5h-759q-26 0 -46 18t-20 43zM170 944 v508q0 26 20 46t46 20h759q25 0 44.5 -20t19.5 -46v-508q0 -24 -19.5 -40.5t-44.5 -16.5h-759q-27 0 -46.5 16.5t-19.5 40.5zM1180 186v133q0 26 20 44t45 18h127q27 0 44.5 -17.5t17.5 -44.5v-133q0 -25 -17.5 -43t-44.5 -18h-127q-25 0 -45 18.5t-20 42.5zM1180 571v127 q0 23 20 42.5t45 19.5h127q27 0 44.5 -19t17.5 -43v-127q0 -26 -17.5 -44.5t-44.5 -18.5h-127q-25 0 -45 19t-20 44zM1180 944v135q0 24 20 43t45 19h127q27 0 44.5 -18.5t17.5 -43.5v-135q0 -25 -17 -41t-45 -16h-127q-26 0 -45.5 16.5t-19.5 40.5zM1180 1327v125 q0 26 20 46t45 20h127q27 0 44.5 -19.5t17.5 -46.5v-125q0 -24 -17.5 -43.5t-44.5 -19.5h-127q-25 0 -45 20t-20 43z" />
<glyph unicode="D" d="M-279 23q0 -2 2 -3.5t6 -5t7 -6.5q27 -1 89 -4.5t91 -3.5q226 0 348 82q15 9 30 22t22 22l8 9q42 53 42 121v13q-4 76 -57 130q-65 56 -149 56q-32 0 -66 -12.5t-72 -49.5t-59 -94q-36 -93 -63 -133q-58 -83 -168 -123q-14 0 -14 -9q0 -5 3 -11zM285 553q-5 -7 -5 -13 q0 -10 17 -16q49 -8 86 -45q32 -34 47 -82q4 -17 20 -17q4 0 9 1q187 109 207 125q76 66 137 137l688 897q11 12 11 25q0 14 -11 24q-13 14 -27 14q-16 0 -34 -16q-18 -12 -429.5 -331t-455.5 -357q-46 -40 -89.5 -83t-52.5 -58q-8 -7 -37.5 -58.5t-55.5 -99.5z" />
<glyph unicode="E" d="M-350 1008q0 -15 10 -26t25 -11h69l-33 -76v-856q0 -13 12.5 -25t26.5 -12h150q16 0 26.5 11.5t10.5 25.5v113h1337v-113q0 -14 10 -25.5t25 -11.5h149q17 0 28 11.5t11 25.5v856l-30 76h67q15 0 25 11t10 26v71q0 17 -10 28t-25 11h-141l-123 406q-33 67 -67 90.5 t-105 23.5h-989q-69 0 -103 -23.5t-65 -90.5l-125 -406h-141q-15 0 -25 -11t-10 -28v-71zM-205 674v153l299 -82v-147h-223zM-23 1118q77 315 91 342q19 31 45 31h1005q30 0 45 -31q5 -12 27.5 -97.5t42.5 -164.5l20 -80h-1276zM319 301v150h592v-150h-592zM1135 598v147 l295 82v-153l-70 -76h-225z" />
<glyph unicode="F" d="M-147 68q37 -68 147 -68h1231q115 0 152 68q14 25 14 54q0 48 -39 107l-539 848v426h72q28 0 49 20t21 46q0 29 -21 49t-49 20h-545q-29 0 -49.5 -20t-20.5 -49q0 -27 20.5 -46.5t49.5 -19.5h66v-426l-537 -848q-36 -58 -36 -106q0 -29 14 -55zM236 549l290 455l23 32 v467h135v-467l21 -32l290 -455h-759z" />
<glyph unicode="G" d="M-207 817q0 -166 65 -317t174.5 -260.5t262.5 -174.5t321 -65q166 0 317 65t260.5 174.5t174 261t64.5 316.5q0 168 -64.5 320.5t-174 262t-260.5 174t-317 64.5q-168 0 -320.5 -64.5t-262.5 -174t-175 -262t-65 -320.5zM-70 821q0 47 11 115l75 -88l187 139l-10 236 h-130q122 176 330 243l-43 -73l258 -109l258 107l-45 82q216 -73 342 -252h-137l-10 -234l188 -139l84 96q6 -62 6 -123q0 -236 -133 -411l-63 127l-201 -68l-74 -197l107 -59q-146 -76 -314 -76q-181 0 -337 86l90 49l-72 197l-203 68l-47 -101q-117 176 -117 385zM350 909 l99 -297h319l98 299l-258 183z" />
<glyph unicode="H" d="M-219 12l289 293q11 0 143 -18.5t238 -18.5q69 0 133.5 7.5t138 28.5t138 55t131 89.5t120.5 128.5t102.5 176.5t81 229t51.5 290.5t19 357q-121 -35 -256.5 -68.5t-223.5 -54t-185 -46.5t-164.5 -52t-136.5 -63t-127 -88t-111 -119q-166 -215 -166 -477q0 -75 17 -184 t18 -118l-250 -251v-97zM135 455q0 24 17 59q29 68 81 135t109 118.5t133.5 104.5t136.5 88.5t136 75.5q69 37 98.5 53t86.5 51.5t89.5 63t73.5 69.5t73 89q44 68 56 68q4 0 4 -3q0 -8 -6.5 -28.5t-13.5 -36.5l-7 -16q-30 -62 -66.5 -117.5t-69 -96t-79.5 -82t-79 -67 t-89 -59.5t-86.5 -50.5t-91.5 -50.5q-139 -76 -273 -167.5t-184 -159.5q-38 -47 -47 -47q-2 0 -2 6z" />
<glyph unicode="I" d="M-291 582q0 -54 58 -103q-52 -44 -52 -100q0 -12 -2 -46.5t-2 -57t5.5 -51.5t17.5 -48q24 -38 70.5 -67t82.5 -41t95 -27q161 -45 336 -45q49 0 100 4q108 3 244 35q93 -35 210 -35q148 0 281 68.5t222 188t112 263.5q6 44 6 87q0 99 -33 197q-48 141 -152.5 247.5 t-242.5 150.5q20 24 20 51q0 12 1 44.5t0.5 50t-3 43.5t-11 46t-21.5 36q-32 37 -79 64.5t-105.5 45t-102 26t-102.5 17.5q-105 10 -199 10q-172 0 -305 -34q-308 -69 -308 -218v-131q0 -40 21 -67q-92 -67 -92 -135v-133q0 -24 22 -70q-92 -63 -92 -133v-133zM-193 379 q0 2 0.5 4.5t5 9.5t11 13t21 12t32.5 8q19 -34 164.5 -58t302.5 -34q22 -44 74 -103q-24 1 -114 3t-148.5 7.5t-116.5 18.5q-12 4 -45 12.5t-58 16t-54.5 20t-48.5 30.5t-26 40zM-193 715v6q12 36 99 72q80 -44 170 -64t217 -33q-9 -38 -9 -95q0 -15 1 -32q-181 7 -293 41 q-165 45 -185 105zM-123 1051q3 5 9.5 14t31.5 29.5t57 33.5q62 -31 214.5 -64.5t263.5 -33.5q-70 -78 -95 -125q-123 3 -260 29q-118 28 -163 53q-50 28 -58 64zM-59 1384q5 16 17 30.5t23.5 23t34 18.5t32 13.5t35.5 11t28 8.5q137 45 350 45q201 0 336 -41q4 -1 46.5 -15 t61 -22t43.5 -28t31 -44q-6 -23 -25.5 -40.5t-52 -29t-51.5 -16.5t-53 -12q-162 -49 -336 -49q-164 0 -293 37q-126 25 -175 53q-42 26 -52 57zM392 592q0 10 -1 19q1 91 31 173q34 90 104.5 166t167.5 117q79 33 178 33q130 0 244 -70t180 -188q61 -109 60 -229v-19 q-4 -100 -52.5 -192.5t-123.5 -156.5t-175 -95q-63 -20 -127 -20l-73 7q-115 12 -212 83t-153 177q-44 93 -48 195z" />
<glyph unicode="J" d="M152 1176q0 -158 96 -283t239 -162v-235h-188q-26 0 -46 -24.5t-20 -51.5v-86q0 -29 20.5 -57.5t45.5 -28.5h188v-166q0 -28 21 -55t45 -27h123q24 0 43.5 26.5t19.5 55.5v166h191q23 0 40 28t17 58v86q0 28 -16.5 52t-40.5 24h-191v227q147 36 250 163.5t103 289.5 q0 127 -62.5 233.5t-169.5 167.5t-233 61t-235 -61t-174.5 -168t-65.5 -233zM412 1176q0 88 61.5 150.5t149.5 62.5t150.5 -62.5t62.5 -150.5t-62.5 -149.5t-150.5 -61.5t-149.5 61.5t-61.5 149.5z" />
<glyph unicode="K" d="M-187 1390v-8q0 -12 5 -20l125 -195q8 -11 25 -20.5t30 -9.5l35 6q36 0 59 -23l203 -207l133 127l-207 207q-10 8 -17.5 25t-4.5 31v36q0 38 -29 54l-193 125q-14 9 -29 8t-24 -10l-100 -101q-9 -9 -11 -25zM-157 268q0 -28 22 -51l145 -145q19 -20 49 -20t50 20l96 98 l690 686q58 -20 122 -20q21 0 43 2q88 9 167 53q199 112 199 320q0 16 -1 34l-329 -170l-191 307l340 181q-96 71 -200 71t-203 -61q-126 -67 -178 -201q-29 -73 -29 -146q0 -61 20 -122l-790 -789q-22 -19 -22 -47zM653 451l398 -437q9 -9 24 -9t25 9l239 240q11 11 11 25 q0 15 -13 24l-440 404z" />
<glyph unicode="L" d="M-209 821q0 -168 65.5 -320t176 -261.5t262.5 -174.5t319 -65q168 0 320 65t262 174.5t175 261.5t65 320q0 167 -65 318.5t-175 260.5t-262 173.5t-320 64.5q-167 0 -319 -64.5t-262.5 -173.5t-176 -260.5t-65.5 -318.5zM-70 821q0 138 54 264.5t145.5 218t218 145.5 t266.5 54t266.5 -54t218 -145.5t145.5 -218t54 -264.5q0 -186 -91.5 -343.5t-249 -249t-343.5 -91.5t-343.5 91.5t-249 249t-91.5 343.5zM201 1094q0 -58 41.5 -98t97.5 -40t97.5 40t41.5 98q0 56 -41.5 96.5t-97.5 40.5t-97.5 -40.5t-41.5 -96.5zM221 631q41 -131 149 -210 t244 -79t244 79.5t148 209.5q10 27 -3.5 51.5t-39.5 32.5q-28 9 -53.5 -4t-32.5 -41q-28 -86 -100 -139.5t-163 -53.5q-89 0 -161.5 53.5t-100.5 139.5q-7 28 -32.5 41t-51.5 4q-28 -7 -42 -31q-8 -15 -8 -33q0 -10 3 -20zM752 1094q0 -59 39.5 -98.5t97.5 -39.5 q56 0 95.5 40t39.5 98q0 57 -39.5 97t-95.5 40q-58 0 -97.5 -40t-39.5 -97z" />
<glyph unicode="M" d="M-379 70q0 -28 22 -49t52 -21h1825q29 0 51 21t22 49v1497q0 30 -21.5 50.5t-51.5 20.5h-1825q-31 0 -52.5 -20.5t-21.5 -50.5v-1497zM-213 248v1227h1643v-783l-293 291q-9 9 -24.5 23t-57 37.5t-76.5 23.5t-74 -21t-61 -42l-21 -21q-217 -244 -297 -328 q71 -31 157 -144q76 -100 76 -142q0 -14 -12 -15q-13 0 -42 19q-68 42 -173 92.5t-176 80.5l-71 29zM-68 1147q0 -72 54 -125t127 -53q76 0 129 52.5t53 125.5q0 74 -53 127t-129 53q-74 0 -127.5 -53.5t-53.5 -126.5z" />
<glyph unicode="N" d="M-197 821q0 -168 65 -320t175 -261.5t262 -174.5t320 -65t320 65t261.5 174.5t174.5 261.5t65 320t-65 319.5t-174.5 260.5t-261.5 173t-320 64t-320 -64t-262 -173t-175 -260.5t-65 -319.5zM422 385v135q0 12 11 22.5t24 10.5h98v268h-98q-14 0 -24.5 10t-10.5 23v133 q0 15 10.5 25t24.5 10h266q15 0 25 -10t10 -25v-434h102q12 0 22.5 -10.5t10.5 -22.5v-135q0 -14 -10 -23.5t-23 -9.5h-403q-14 0 -24.5 9.5t-10.5 23.5zM555 1122v133q0 15 11 24t26 9h131q15 0 25 -9t10 -24v-133q0 -15 -10 -23.5t-25 -8.5h-131q-16 0 -26.5 8.5 t-10.5 23.5z" />
<glyph unicode="O" d="M-332 464q18 -140 106 -257t220 -173q101 -42 208 -42q33 0 66 4q142 17 258 106q158 119 199 320l186 141q23 -2 46 -2q173 0 317 109q116 90 171 222q42 101 41 207q0 34 -4 68q-18 143 -106 260q-88 115 -220 169q-100 41 -205 41q-34 -1 -69 -5q-142 -18 -257 -104 l-748 -570q-119 -89 -173 -221q-41 -99 -40 -202q-1 -35 4 -71zM-100 379q-11 12 -11 23q0 12 13 22l157 123l-120 158q-9 12 -6.5 26t14.5 25l108 84q10 7 23.5 3t21.5 -14l121 -161l158 123q12 9 27 6.5t24 -13.5l80 -104q9 -12 6 -27t-14 -24l-158 -119l123 -162 q6 -9 5.5 -23.5t-9.5 -21.5l-111 -82q-10 -8 -23 -8h-3q-15 1 -23 10l-121 162l-159 -119q-10 -9 -23.5 -6t-22.5 16zM792 929q6 56 48 89q37 27 80 27q12 1 22 -1q56 -8 88 -53q28 -36 28 -79q0 -9 -2 -19q-8 -54 -52 -88q-37 -28 -79 -29q-10 0 -19 2q-53 8 -87 51 q-28 38 -28 84q0 8 1 16zM842 1303q8 55 55 90q35 27 78 27q9 0 19 -1q54 -7 87 -51q26 -36 26 -79q0 -9 -1 -19q-7 -54 -49 -88q-40 -29 -86 -29q-8 0 -16 1q-55 6 -89 50q-25 35 -25 76q-1 11 1 23z" />
<glyph unicode="P" d="M-86 131q-4 8 -4 18q0 19 12 47q18 44 19 48q1 17 -4.5 40.5t-11 41t-5 34t11.5 25.5q12 12 53 16.5t56 12.5q30 14 42.5 31.5t12.5 48.5q8 -34 -1 -62t-34 -37q-9 -9 -32.5 -14.5t-44.5 -3.5q-21 6 -41 -4q-6 -12 2 -62q24 -35 24 -71q-1 -9 -16 -43.5t-12 -49.5 q5 -15 32 -22q19 -5 83 -17t98 -20q24 -6 70 -22t75.5 -22.5t50.5 -2.5q36 4 57.5 18.5t26 36t3.5 43t-11 47t-17.5 40t-15.5 28.5q-118 182 -162 231q-45 48 -77 48q-16 0 -29 -11q-6 -4 -10.5 0t-6 14.5t-2 19t-0.5 19.5q2 28 10 50t22 47.5t20 40.5q10 24 27 68.5t28 72 t29 59.5t37 52q103 133 124 188q-18 126 -18 293v19q1 31 3 55q4 30 15.5 64.5t38 61.5t68.5 48q26 18 98 18q121 0 189 -51q53 -40 85 -115q31 -71 31 -135v-8q-1 -10 -1.5 -20.5t0.5 -23t1.5 -20.5t3 -23.5t3.5 -21.5t4.5 -24t4.5 -22t5.5 -24.5t5.5 -23.5 q16 -61 46 -107.5t83 -101.5q53 -59 95 -158.5t57 -183.5q5 -33 5 -60t-5 -48q-10 -42 -27 -47q-9 -1 -21.5 -16.5t-25.5 -33.5t-39 -33t-59 -14q-12 0 -22 1.5t-18 6.5t-13 8t-10.5 12.5t-7.5 12.5t-8 15.5t-7 15.5q-20 37 -38.5 29.5t-21.5 -47.5q-8 -20 -8 -42 q0 -25 10 -53q8 -28 9.5 -61.5t-1.5 -56.5t-8 -70q-2 -16 -2 -30q0 -42 20 -67q25 -31 64 -31h7q44 3 79 36q57 46 87 63t100 43q93 32 93 62q0 27 -73 53q-32 12 -48 48q-16 34 -15 65q0 36 14 47q2 -35 9.5 -61t21.5 -43t22.5 -25.5t26.5 -19t20 -11.5q19 -12 29 -24 q11 -13 11 -26q0 -9 -2 -19q-3 -10 -14.5 -20.5t-22.5 -18.5t-29 -18t-30.5 -16t-31.5 -15t-27 -13q-57 -26 -155 -109q-13 -16 -63 -20q-10 -1 -20 -1q-38 0 -69 13q-19 12 -29.5 30.5t-25.5 29.5t-53 14h-125q-70 0 -107 -6q-44 0 -78.5 -12t-51.5 -27t-41 -27t-50 -12 q-28 1 -107 30t-143 42q-14 3 -48.5 8.5t-49 8.5t-36 9.5t-32.5 14t-16 18.5zM213 715q-16 -26 -16 -62q0 -43 24 -100q4 -7 11.5 -14t19 -14.5t16.5 -12.5q18 -23 101 -89t90 -73q14 -14 15.5 -36t-13.5 -41.5t-45 -24.5q8 -12 24 -33.5t21.5 -32t11.5 -35.5t6 -59 q15 8 19 24t0 31.5t-13 30.5q-4 8 -10.5 16.5t-9 13t-0.5 7.5q0 1 5.5 5.5t11.5 5.5t10 -7q44 -37 112 -37q23 0 49 4q127 15 168 82q25 31 35 27q10 -3 10 -47q-2 -37 -22 -86q-8 -25 -6 -39.5t22 -14.5q3 25 14.5 79t12.5 81v9q-1 21 -7 62q-8 47 -8 89q0 48 23 76 q16 16 51 16q2 34 34 49q24 11 52 11q9 0 18 -1q37 -5 56 -22q0 17 -53 43q13 41 14.5 75.5t-2 53t-16.5 74.5q-9 44 -44.5 96.5t-68.5 69.5q20 -14 57 -74q60 -131 61 -220q0 -29 -7 -53q-9 -21 -23.5 -30.5t-24.5 -9.5q-21 -2 -31 6t-12.5 28t-2 42.5t-2.5 58.5t-11 67 q-6 24 -12.5 44.5t-11.5 34.5t-11 25.5t-10.5 18t-9.5 12.5t-7.5 8.5t-7.5 5.5l-4 3q-13 61 -29 101t-28 55t-23.5 32t-15.5 37q-2 16 4 39t9.5 37t-6 27.5t-38.5 19.5q-14 1 -41.5 15t-33.5 14q-7 5 -9.5 29t7 48.5t32.5 26.5q36 1 50 -31.5t4 -54.5q-10 -18 -3 -23.5 t29 -0.5q10 2 13 18.5t1 31t0 19.5q-5 29 -13.5 48t-20.5 29.5t-22.5 15t-27.5 8.5q-89 -7 -88 -104q0 -14 2 -31v-11q-8 8 -26.5 9.5t-31.5 2t-13 7.5q0 52 -17 84t-45 32q-27 1 -39 -25t-14 -59q-3 -15 1 -36.5t12 -36t16 -9.5q8 0 13 11q5 10 -5 10q-7 0 -16 12.5 t-9 28.5q0 23 10 38.5t31 12.5q28 0 36.5 -36t0.5 -44q-8 -3 -19.5 -12.5t-13.5 -13.5q-6 -12 -24.5 -21.5t-20.5 -11.5q-9 -14 -12 -26.5t4 -14.5q14 -8 24 -20.5t15 -21t18.5 -14.5t36.5 -6q14 -1 29.5 1t22 3.5t25 7t20.5 5.5q2 1 13.5 4t19.5 5.5t20.5 7t21 8.5t17 10 t12.5 12q4 8 17 8q6 -3 7.5 -9.5t-3.5 -12.5t-17 -7q-20 -6 -96 -43q-67 -21 -68 -22q-6 -1 -14 -1q-22 0 -62 6q-8 1 -8 -1q0 -3 15 -16q10 -10 16 -14.5t18.5 -7.5t30.5 -1q13 0 27 3t27 8.5t26.5 12t25.5 13t23 12.5t19.5 10t15.5 5.5t11.5 -0.5t5.5 -9q0 -11 -48 -30 q-27 -13 -65 -42.5t-63 -42t-44 -1.5q-23 11 -65 70q-22 31 -25 24q-2 -3 -2 -10q2 -24 -11.5 -54.5t-28.5 -54t-21.5 -56.5t10.5 -61q-20 -4 -57.5 -84.5t-48.5 -138.5q-1 -15 1 -41.5t1 -46.5t-5 -31q-8 -25 -28 -5q-30 29 -34 91q-1 28 5 54q2 16 -2 15q-1 -1 -4 -5z M262 846q10 0 25 22q0 4 1 9l1.5 7.5t0.5 5.5t-0.5 4.5t-2.5 2.5q-5 2 -7 -1.5t-4 -13t-4 -14.5t-9 -12q-4 -5 -4 -7q0 -3 3 -3zM482 1383q0 -6 3 -7q7 0 7 -10q-2 -12 0 -16t10 -4q6 0 6 2q1 18 -5 29.5t-14 11.5q-7 3 -7 -6zM513 1308q0 8 12 11h14q-9 0 -13 -8t-8 -8 q-5 -2 -5 5zM598 1319q24 7 28 -7q1 -4 -1 -5q-4 -2 -13 5.5t-14 6.5zM704 1389q17 -7 21 -33q10 2 10 10t-5 15t-10 10.5t-7 3.5q-9 -2 -9 -6zM723 1559q4 -3 8.5 0t12 9t14.5 9q27 0 30 8q0 4 -20 17q-19 14 -25 14q-9 -1 -11 -7.5t-0.5 -13t-0.5 -10.5q-1 -2 -3.5 -6 t-4 -6t-2.5 -5q-1 -2 -1 -4t3 -5zM844 1202q-7 -7 -7 -16q-1 -12 11 -26q20 -26 39 -27q18 0 18 18v6q-1 8 -6 11t-14 5t-15 7q-5 4 -10.5 12t-7.5 10q-1 1 -3 1t-5 -1z" />
<glyph unicode="Q" d="M-96 768q0 -245 149 -510q75 -132 150 -196t157 -64q52 0 134 33q93 35 143 35q72 0 149 -35q98 -31 146 -31q129 0 260 201q84 124 123 252q-89 28 -160 127q-70 103 -70 227q0 118 68 209q23 39 115 121q-54 63 -107 102q-101 66 -217 66q-52 0 -174 -35 q-98 -35 -145 -35q-28 0 -138 29q-123 30 -178 30q-175 0 -293 -145q-112 -144 -112 -381zM596 1272q55 2 104 18q51 18 111 72q65 71 92 139q33 73 33 141v19q-2 3 -4 10.5t-4 11.5q-177 -41 -254 -149q-75 -109 -78 -262z" />
<glyph unicode="R" d="M-145 63q0 -25 20.5 -44t48.5 -19h68q25 0 45 19t20 44v334l142 246q15 21 57 21l569 -121q13 0 22 -12.5t9 -26.5v-441q0 -25 18.5 -44t45.5 -19h67q28 0 48 19t20 44v766q0 14 -9.5 31t-19.5 25l-256 276q-9 9 -22.5 9t-22.5 -9q-3 -4 -8 -10t-26.5 -15.5t-47.5 -9.5 h-493q-50 0 -91 27q-18 11 -55.5 38t-65.5 48l-28 21q-3 1 -9.5 3t-9.5 2.5t-8 1t-9 -1.5t-7 -5q-10 -11 -9.5 -26.5t11.5 -23.5l129 -163q24 -28 6 -52l-127 -176q-8 -9 -15 -28.5t-7 -32.5v-695zM834 1255.5q0 -14.5 8 -24.5l254 -270q9 -9 22.5 -9t22.5 9l71 71 q31 18 52 0l43 -37q11 -9 26.5 -9.5t26.5 9.5l211 138q13 11 13 23q0 9 -9 18l-309 303q-13 15 -13 51v98q0 20 -9 26q-4 2 -9 2t-13 -4q-14 -7 -30 -24l-350 -348q-8 -8 -8 -22.5z" />
<glyph unicode="S" d="M-187 694q39 -246 205 -426q162 -178 402 -240q105 -27 208 -27q132 0 261 44q225 78 377.5 269.5t177.5 426.5q3 37 4 74q0 137 -48 269q-60 166 -170.5 289t-270.5 197.5t-336 74.5q-238 0 -444 -133t-304 -351q-73 -159 -73 -332q0 -66 11 -135zM233 713q-3 7 -3 17 q0 11 4 24q6 26 2 37q-2 9 -2 17q0 25 18 48q7 8 24 31.5t32 40t30 24.5q11 7 35.5 5.5t42.5 0.5q42 11 66 11q11 0 18 -2q9 -1 11.5 -5.5t0 -10.5t-2.5 -12t5 -9q42 -30 53 -35q12 -7 24.5 8.5t16.5 16.5q43 10 58 4q9 -2 18 -2q24 0 46 14q29 19 7 55q-7 9 -33.5 19 t-29.5 12q-9 4 -14.5 24.5t-20.5 20.5q-9 -1 -10.5 -6.5t2 -11.5t6.5 -13.5t2 -11.5q-4 -6 -8.5 -7t-9.5 3.5t-9 8.5t-8.5 12t-6 10.5t-3.5 7.5q-1 1 -8.5 10t-15.5 18t-18 18.5t-16.5 12t-11.5 -1.5q-2 0 21 -35q19 -29 19 -42q0 -10 -12 -10q-6 0 -15 3q0 16 -18 30.5 t-21 18.5q-17 17 -29 14t-31 -22q-59 -46 -80 -57q-10 -4 -17.5 -6t-12.5 -0.5t-9 3.5t-5.5 8t-3 10t-1.5 12.5v12.5t1 13.5t1 11.5q0 11 7.5 14.5t22.5 3t17 -0.5q10 5 13.5 10t1 10.5t-6 10.5t-9 10t-7.5 8q4 7 22.5 15.5t43 17t28.5 10.5q13 3 32 11t31 13t31.5 6.5 t34.5 -8.5q5 -5 28 13q29 22 4 29l-5 1q-18 12 -31 12.5t-20 -5.5t-18 -15.5t-23 -13.5q0 15 -16 27.5t-32.5 20t-25.5 22t6 32.5q24 34 52 45t98 17q27 2 48 2q50 0 67 -13q13 -10 9.5 -33.5t-28.5 -24.5q2 -17 9 -23t20 -2.5t21.5 7.5t23.5 14.5t16 10.5q17 12 49 15.5 t51.5 1.5t28.5 2q4 5 1 23t1 26t12 8q3 -1 6 -1q13 -4 15 -13q15 -3 34.5 1.5t36.5 4.5t36 -14q213 -144 280 -414q21 -80 21 -130q0 -18 -3 -33q-4 -23 -16 -19q-8 2 -13 25.5t-11 29.5q-21 -6 -50.5 -35t-42.5 -53q-6 -11 -3.5 -29.5t-2.5 -36.5t-20 -18q-10 0 -18.5 26 t-8.5 39q-6 35 -22 76q-6 15 -12 18t-16.5 0.5t-18.5 -1.5q-13 3 -26 24t-34 23q-25 1 -36.5 -15.5t-6.5 -42.5q-2 -2 -12.5 -13t-15 -15t-15 -13.5t-16.5 -14t-16 -11.5t-18 -10.5t-17.5 -6t-18.5 -1.5q-18 0 -38 59.5t-40 68.5q-19 8 -32 -7t0 -30q2 -4 13 -32.5t27 -40.5 q19 -16 24 -20t22.5 -15t27.5 -11.5t26 2.5t32 15q-2 -21 -13 -43t-21 -35t-30.5 -35t-28.5 -32q-29 -44 -29 -76q0 -7 1 -14q1 -8 5.5 -22.5t7 -25t1 -24t-9.5 -23.5q-3 -4 -26 -20.5t-27 -34.5q6 -10 6 -31q-3 -5 -16.5 -19t-16.5 -24q-44 -85 -82 -98q-36 -12 -55 -12 q-14 0 -19 6q-20 28 -28.5 108t-14.5 97q-8 19 1.5 44.5t9.5 37.5q1 11 -4 23t-12.5 25t-10.5 19q-12 22 -12 49q0 10 2 21q0 16 -18 18t-21 4q-5 3 -10.5 9t-8.5 8.5t-9.5 4t-14.5 -4.5q-14 -9 -51 -16t-54 -3q-24 4 -48 41t-30 64zM326 1200q2 2 10.5 6.5t13.5 10.5 q8 9 5.5 20t-6 17.5t-11 17t-10.5 16.5q8 22 26 22q9 0 22 -6q34 -16 46 -52q4 -11 4 -21q0 -21 -18 -37q-14 -12 -59 -10q-26 2 -26 11q0 2 3 5zM825 336q5 28 14 45.5t29.5 40.5t30.5 37q10 -9 12 -23q1 -4 1 -10q0 -11 -3 -27q-4 -24 -4 -26q0 -28 -15.5 -60t-41.5 -32 q-12 1 -18 11t-6 21z" />
<glyph unicode="T" d="M-139 571q-5 -18 -5 -36q0 -35 19 -68l68 -119q29 -47 83 -62q20 -5 40 -5q34 0 65 16l283 164v-326q0 -57 40 -96t97 -39h137q56 0 96.5 39.5t40.5 95.5v326l285 -164q30 -16 63 -16q19 0 39 5q54 15 82 62l70 119q17 32 17 66q0 19 -5 38q-15 54 -61 82l-287 164 l287 166q46 28 61 82q5 19 5 38q0 33 -17 64l-70 117q-28 50 -82 66q-19 5 -38 6q-34 0 -64 -19l-285 -163v329q0 54 -41 94.5t-96 40.5h-137q-57 0 -97 -40t-40 -95v-329l-283 163q-33 19 -67 19q-18 0 -38 -6q-54 -16 -83 -66l-68 -117q-19 -32 -19 -66q0 -18 5 -36 q15 -54 63 -82l287 -166l-287 -164q-48 -28 -63 -82z" />
<glyph unicode="U" d="M-49 164q0 -12 11.5 -22.5t23.5 -10.5h100l133 -131h795l135 131h100q12 0 22.5 10.5t10.5 22.5v67q0 13 -10.5 23t-22.5 10h-1263q-13 0 -24 -10t-11 -23v-67zM285 299h661v500q0 53 -37 91t-92 38h-332q-55 0 -94 -38t-39 -91v-154q-29 -14 -48 -48t-19 -75v-223z M404 1154q0 -46 44 -88t136 -71q-36 36 -46 67.5t2 58.5t29.5 50t37 52.5t24.5 56.5q31 -13 63 -50q34 -36 54 -79q14 -30 14 -60q0 -13 -3 -27q-9 -44 -54 -69q165 11 189 145q4 24 5 49q0 100 -70 229q-77 142 -186 223l-20 14q3 -12 3 -25q0 -30 -14 -66 q-20 -52 -54 -101.5t-71.5 -104t-59.5 -105.5q-23 -52 -23 -99z" />
<glyph unicode="V" d="M-55 1278q-1 -4 -1 -8q0 -18 11 -43l252 -434l-217 -453q0 -4 -8 -16q-2 -11 -2 -20q0 -32 30 -40q21 -6 39 0l494 103l360 -344q23 -19 35 -23q7 -2 13 -2q27 0 40 39q0 2 1 8.5t1 9.5l54 500l442 238q30 17 37 36q2 7 2 13q0 32 -45 49l-455 203l-90 489q-7 45 -37 55 q-4 1 -9 1q-10 1 -22 -5q-16 -8 -26 -22l-336 -371l-496 64q-22 5 -41 -1.5t-26 -25.5z" />
<glyph unicode="W" d="M-39 993q0 -55 32 -100.5t85 -65.5v-710q0 -49 34.5 -83t84.5 -34h116q49 0 83 34t34 83v710q54 20 86.5 65.5t32.5 100.5v586q0 26 -18.5 42.5t-43.5 16.5q-23 0 -40 -17t-17 -42v-377q0 -26 -17 -43.5t-42 -17.5t-41.5 17.5t-16.5 43.5v377q0 26 -16.5 42.5t-40.5 16.5 q-26 0 -42.5 -16.5t-16.5 -42.5v-377q0 -26 -17.5 -43.5t-40.5 -17.5q-25 0 -43 17.5t-18 43.5v377q0 26 -17.5 42.5t-42.5 16.5q-24 0 -40.5 -16.5t-16.5 -42.5v-586zM664 614q0 -12 9 -21t21 -9h207v-467q0 -49 33.5 -83t81.5 -34h117q48 0 82 34t34 83v1462 q0 26 -16.5 42.5t-38.5 16.5h-236q-122 0 -208 -85.5t-86 -206.5v-732z" />
<glyph unicode="X" d="M-201 334q0 -138 98.5 -236t237.5 -98h967q141 0 239.5 98t98.5 236v371q0 22 -25 36q-2 0 -6 1t-6 1q-17 0 -27 -12l-76 -74q-10 -7 -10 -26v-297q0 -75 -55 -129.5t-133 -54.5h-967q-76 0 -131 54.5t-55 129.5v969q0 79 54.5 132.5t131.5 53.5h967q21 0 53 -4 q6 -6 10 -6q17 0 27 10l57 61q17 14 11 33q0 10 -21 27q-46 26 -137 26h-967q-139 0 -237.5 -97.5t-98.5 -235.5v-969zM97 894q0 -39 28 -67l502 -499q31 -28 68.5 -28t62.5 28l950 946q29 28 29 67.5t-29 67.5l-127 125q-28 29 -67.5 29t-65.5 -29l-756 -754l-307 307 q-28 28 -64.5 28t-64.5 -28l-131 -126q-28 -28 -28 -67z" />
<glyph unicode="Y" d="M-207 821q0 -168 65 -320.5t175 -262t261.5 -174t317.5 -64.5q168 0 319.5 64.5t261.5 174t174.5 262t64.5 320.5q0 222 -109.5 410t-298 297.5t-412.5 109.5q-166 0 -317.5 -64.5t-261.5 -174t-175 -261t-65 -317.5zM220 954q-4 15 -4 31q0 28 10 61q15 51 63 82 q43 28 88 28h2q46 -1 79 -19t58 -47q36 -41 102 -41q59 0 105 41q25 29 57.5 47t77.5 19h2q44 0 84 -28q39 -24 58 -60q18 -33 18 -66q0 -34 -9 -66q-8 -29 -20 -45l-373 -506l-374 506q-16 24 -24 63z" />
<glyph unicode="Z" d="M-344 238q0 -98 71.5 -168t170.5 -70h34v1366h-34q-98 0 -170 -71t-72 -169v-888zM37 0h1157v1366h-170v170q0 41 -30.5 71.5t-73.5 30.5h-613q-41 0 -71.5 -30.5t-30.5 -71.5v-170h-168v-1366zM205 582v204q0 12 11 22.5t22 10.5h241v240q0 13 10 22t25 9h205 q14 0 23.5 -9t9.5 -22v-240h239q14 0 23.5 -10t9.5 -23v-204q0 -15 -9 -25t-24 -10h-239v-240q0 -14 -10 -24.5t-23 -10.5h-205q-15 0 -25 10.5t-10 24.5v240h-241q-11 0 -22 10.5t-11 24.5zM340 1366v135h549v-135h-549zM1300 0h31q98 0 168 70t70 168v888q0 98 -70 169 t-168 71h-31v-1366z" />
<glyph unicode="a" d="M-332 1227h410v-1227h409v1227h408v411h-1227v-411zM1110 0h406v412h-406v-412zM1110 512h406v1126h-406v-1126z" />
<glyph unicode="b" d="M-258 561q0 -21 16 -26l299 -222l222 -301q10 -12 28 -12q19 0 29 10l110 113q15 15 11 33l-64 235l307 303l328 -598q5 -17 31 -24h6q8 0 20 8l148 113q19 14 14 45l-182 817l186 190q57 55 97 129t46 140q1 10 1 19q0 53 -31 89q-34 30 -86 30q-40 0 -88 -16 q-114 -38 -203 -129l-190 -184l-783 182q-22 4 -37 -8l-147 -151q-16 -13 -16 -31q11 -23 24 -29l600 -330l-305 -307l-227 66h-15q-11 0 -26 -10l-113 -111q-11 -21 -11 -30q0 -2 1 -3z" />
<glyph unicode="c" d="M-205 825q0 -168 65 -321t175.5 -263.5t262.5 -175.5t320 -65q166 0 317 65t260.5 175.5t174 263.5t64.5 321q0 164 -64.5 314t-173.5 259.5t-260.5 174.5t-317.5 65q-167 0 -320 -65t-263 -174.5t-175 -259.5t-65 -314zM12 825q0 120 48 230.5t128.5 191t193 128.5 t236.5 48q160 0 298.5 -81t219.5 -219t81 -298q0 -124 -48 -236.5t-129 -193t-191.5 -128.5t-230.5 -48q-165 0 -304.5 81t-220.5 220.5t-81 304.5zM414 514q0 -7 6 -10q3 -2 4.5 -2t3.5 2l516 305q8 8 8 14.5t-8 12.5l-516 303q-2 2 -4 1.5t-4 -1.5q-6 -3 -6 -9v-616z" />
<glyph unicode="d" d="M-227 215q0 -89 63 -152t154 -63h641q91 0 154 63t63 152v645q0 90 -63.5 153.5t-153.5 63.5h-641q-90 0 -153.5 -63.5t-63.5 -153.5v-645zM-109 250q0 55 39 93t93 38t90.5 -37.5t36.5 -93.5q0 -53 -37 -92t-90 -39q-54 0 -93 39t-39 92zM-109 823q0 53 39 92t93 39 q53 0 90 -39t37 -92q0 -52 -37 -90.5t-90 -38.5q-54 0 -93 39t-39 90zM180 539q0 52 37.5 90.5t93.5 38.5q51 0 90 -39t39 -90q0 -55 -38.5 -93t-90.5 -38q-57 0 -94 37.5t-37 93.5zM446 1145h254q91 0 154.5 -62.5t63.5 -150.5v-252q37 57 110 57q51 0 88 -38t37 -93 q0 -51 -37 -89t-88 -38q-73 0 -110 60v-213q49 -28 106 -28q14 0 28 2q72 8 124 60l458 453q63 63 63 153.5t-63 153.5l-458 453q-62 66 -150.5 66t-151.5 -66zM467 250q0 55 37.5 93t91.5 38q53 0 92 -38t39 -93q0 -52 -39.5 -91.5t-91.5 -39.5q-53 0 -91 39t-38 92z M467 823q0 53 38 92t91 39q52 0 91.5 -39t39.5 -92q0 -51 -39.5 -90t-91.5 -39q-53 0 -91 38.5t-38 90.5zM897 1323q0 56 37 93.5t94 37.5q51 0 88 -38t37 -93q0 -51 -37 -89t-88 -38q-56 0 -93.5 37.5t-37.5 89.5zM1257 967q0 56 36.5 93.5t90.5 37.5t90.5 -37.5 t36.5 -93.5q0 -53 -37 -92t-90 -39t-90 39t-37 92z" />
<glyph unicode="e" d="M-172 456q3 -130 100 -227l121 -123q101 -100 235 -104h12q127 0 212 88l381 381q88 88 88 211q-1 7 -1 15q-6 133 -104 233l-198 198l-158 -155h6l193 -199q33 -30 41 -75q2 -10 1 -18q0 -32 -22 -54l-379 -385q-26 -22 -60 -22q-9 0 -18 1q-45 7 -75 41l-119 117 q-33 35 -38 74q-1 5 -1 11q0 33 27 64l114 109q-90 99 -114 194l-154 -151q-90 -91 -90 -216v-8zM162 946v11q0 124 88 212l383 379q89 89 212 89q6 -1 12 -1q131 -4 230 -100l115 -121q103 -97 109 -231v-16q0 -123 -88 -207l-152 -156q-44 121 -115 194l115 113 q20 20 22 48.5t-10 54.5t-34 49l-117 120q-23 19 -46.5 29.5t-51.5 7.5t-50 -26l-378 -379q-27 -31 -27 -66q1 -5 1 -11q4 -42 36 -69h2l203 -208l-156 -156l-201 209q-98 100 -102 231z" />
<glyph unicode="f" d="M-135 121q25 -76 117 -109q46 -15 95 -15q52 0 109 17q90 30 148 86.5t61 112.5v870l754 203v-672q-32 8 -67 8q-59 0 -124 -24q-108 -35 -168 -116q-41 -57 -41 -111q0 -23 7 -45q25 -75 118 -108q46 -16 95 -16q51 0 106 17q92 30 151.5 87t61.5 112v1208q0 14 -10 22 q-8 7 -18 7h-5l-964 -258q-14 -3 -24.5 -15.5t-10.5 -27.5v-946q-26 7 -58 7q-56 0 -132 -22q-107 -35 -167 -116q-42 -57 -42 -110q0 -23 8 -46z" />
<glyph unicode="g" d="M-236 262q0 -55 40 -94t94 -39v-63l96 -66l98 66v63h1051v-63l94 -66l100 66v63q53 0 91 39t38 94v717q0 52 -34 89.5t-84 43.5q-130 133 -310 133q-176 0 -303 -133h-837q-55 0 -94.5 -38t-39.5 -95v-717zM-102 520v72h716v-72h-716zM-102 653v66h716v-66h-716zM-84 459 h698v-64h-589q-71 0 -109 64zM-84 782q39 70 109 70h589v-70h-698zM481 1178h166q28 35 60 67h-226v-67zM641 1499l176 -176q42 18 68 25l-199 196zM752 819q0 118 84.5 201.5t201.5 83.5q122 0 205.5 -83t83.5 -202q0 -120 -83.5 -205.5t-205.5 -85.5q-117 0 -201.5 86 t-84.5 205zM817 819q0 -93 65 -158t156 -65q95 0 161.5 64.5t66.5 158.5t-66.5 158.5t-161.5 64.5q-12 0 -25 -2.5t-30 -7t-25 -6.5q43 -25 43 -78q0 -39 -26.5 -65.5t-61.5 -26.5q-44 0 -79 39q-17 -49 -17 -76zM1010 1370h28h33v270h-61v-270zM1198 1348q23 -6 68 -25 l176 176l-43 45zM1374 1245q18 -14 60 -67h163v67h-223z" />
<glyph unicode="h" d="M123 129q0 -52 39.5 -90.5t93.5 -38.5h725q53 0 90 38t37 91v1315q0 28 -33 61t-92 63t-154.5 50t-205.5 20q-113 0 -211 -20t-159 -50t-95.5 -63t-34.5 -61v-1315zM256 129v133h199v-133h-199zM256 328v131h199v-131h-199zM256 524v127h199v-127h-199zM256 784v660h725 v-660h-725zM518 129v133h201v-133h-201zM518 328v131h201v-131h-201zM518 524v127h201v-127h-201zM784 129v133h197v-133h-197zM784 328v131h197v-131h-197zM784 524v127h197v-127h-197z" />
<glyph unicode="i" d="M-133 0h1020q86 0 146.5 60.5t60.5 146.5v954q0 85 -60.5 146t-146.5 61h-836l137 135h838q203 0 203 -205v-1091l139 135v1026q0 101 -86.5 186.5t-187.5 85.5h-988l-239 -254v-1386z" />
<glyph unicode="j" d="M-403 915q0 -136 68 -259t192 -222l-95 -411q-3 -17 4 -23q3 -2 10 -2q6 0 15 2l420 258q196 -57 418 -57q280 0 518.5 96t378 260.5t139.5 357.5q0 196 -139.5 362.5t-378 263.5t-518.5 97q-281 0 -518.5 -97t-375.5 -263.5t-138 -362.5z" />
<glyph unicode="k" d="M-696 369q115 437 571 661q347 171 971 248q249 30 841 73q160 11 259 19q3 -8 3 -18.5t-3 -23.5q-6 -26 -26.5 -64.5t-40 -71.5t-57 -85.5t-59 -82t-63 -84.5t-53.5 -72q-239 -342 -430 -499q42 102 107 216t122.5 200.5t124.5 201.5t112 217q-122 -7 -334 -52t-339 -50 q24 -99 24 -186q0 -56 -10 -106q-26 -130 -90 -236.5t-169 -177.5t-224 -115t-253 -48q-17 -1 -34 -1q-116 0 -223 24q-123 28 -236 100t-190 179h-9q-53 0 -96 -11q-47 -12 -83 -38.5t-59.5 -51.5t-53.5 -65zM121 690q0 -69 51 -119.5t123 -50.5q68 0 120 51t52 119 q0 73 -52 125.5t-120 52.5q-72 0 -123 -52t-51 -126z" />
<glyph unicode="l" d="M-328 0v1640h1889v-1640h-1889zM-76 254h1389v1135h-1389v-1135zM-10 613q7 -26 28 -38q23 -11 49 -4t39 29l95 180l239 -235l250 248l260 -269l289 584q8 14 8 28q0 9 -3 18q-8 24 -32 38q-15 6 -29 6q-11 0 -21 -4q-24 -8 -34 -31l-213 -424l-225 232l-250 -254 l-270 268l-176 -321q-7 -15 -7 -31q0 -10 3 -20z" />
<glyph unicode="m" d="M-158 -2v1640h1364v-184l-182 -182v182h-999v-1274h999v367l182 180v-729h-1364zM481 362l273 91l-183 184zM662 727l182 -180l637 635l-185 180zM1389 1454l184 -182l90 90v92l-90 90h-92z" />
<glyph unicode="n" d="M-492 772v90q94 159 220.5 283.5t268 204t300 121t316.5 41.5t316.5 -41.5t300 -121t268 -204t220.5 -283.5v-90q-125 -213 -305.5 -362.5t-380.5 -220t-419 -70.5t-419 70.5t-380.5 220t-305.5 362.5zM104 813q0 -142 68.5 -262t186.5 -189t257 -69q138 0 255 69 t185 189t68 262q0 144 -68 265.5t-185 192t-255 70.5q-139 0 -257 -70.5t-186.5 -192t-68.5 -265.5zM362 813q0 -107 74 -183.5t180 -76.5q104 0 178 77t74 183q0 110 -73.5 186t-178.5 76q-107 0 -180.5 -76t-73.5 -186z" />
<glyph unicode="o" d="M-446 287v1065q0 11 8 51l674 -598l-674 -574q-8 28 -8 56zM-324 1483h1878q3 0 9.5 -1t9.5 -1l-952 -840zM-322 152l658 559l282 -248l287 248l643 -559h-1870zM1008 805l671 592q9 -36 9 -45v-1065q0 -22 -19 -66z" />
<glyph unicode="p" d="M-254 1015q-1 -3 -1 -6q0 -18 30 -44l377 -279q35 -31 51 -80q9 -29 9 -55q0 -20 -5 -39l-135 -451q-14 -44 2 -55q4 -4 11 -4q16 0 44 18l387 269q35 26 87.5 26t90.5 -26l387 -269q26 -19 42 -19q7 0 13 4q18 12 5 56l-140 451q-5 18 -5 37q0 27 10 57q18 49 55 80 l373 279q30 26 30 44q0 3 -2 6q-6 19 -51 19l-469 10q-47 0 -89 32t-60 79l-152 440q-10 28 -23 38q-7 5 -14 5l-14 -5q-13 -10 -23 -38l-153 -440q-15 -46 -58.5 -78.5t-87.5 -32.5l-469 -10q-46 0 -53 -19z" />
<glyph unicode="q" d="M-324 1044q0 174 68 333t183.5 274.5t274.5 183.5t333 68q140 0 270.5 -43.5t235.5 -123t183.5 -185.5t121.5 -236.5t43 -270.5q0 -223 -109 -421l377 -373q59 -60 59 -141.5t-59 -143.5q-63 -57 -141 -57q-79 0 -142 57l-362 367q-225 -148 -477 -148 q-140 0 -270.5 43.5t-236.5 123t-185.5 185t-123 237t-43.5 271.5zM-59 1044q0 -162 78.5 -298.5t215.5 -216.5t300 -80q119 0 228 47t188.5 127t127 190t47.5 231q0 160 -80 297t-216.5 217t-294.5 80q-163 0 -300 -80t-215.5 -216.5t-78.5 -297.5z" />
<glyph unicode="r" d="M-229 887q0 -43 14 -85.5t37 -68.5q-15 -62 -15 -84q-1 -7 -1 -15q0 -69 51 -134q-12 -30 -12.5 -60t12.5 -61q15 -66 55 -103v-18q0 -114 49 -168q76 -90 217 -90h133q32 0 63.5 2.5t66.5 9.5t58.5 12t62 17t53.5 17t56.5 19t49.5 17q135 43 170 43q28 0 49 21t21 53 v678q0 28 -19.5 47t-50.5 20q-25 4 -86 71t-103 126q-68 88 -100 125q-21 19 -35.5 49.5t-20 53.5t-11.5 61q-21 127 -70 176q-27 20 -53 20q-48 0 -86 -11.5t-62 -28t-41.5 -43.5t-26 -48.5t-13 -52.5t-5 -46.5t-0.5 -39.5q0 -42 8.5 -84t16.5 -63.5t24 -61.5 q18 -18 25 -29t16 -36h-297q-82 0 -141 -61t-59 -146zM1026 211q0 -33 21 -53.5t51 -20.5h301q31 0 51 20.5t20 53.5v676q0 29 -20 49t-51 20h-301q-30 0 -51 -20t-21 -49v-676zM1198 346q0 25 19.5 44.5t46.5 19.5q31 0 50 -19t19 -45q0 -34 -18.5 -54t-50.5 -20 q-28 0 -47 20.5t-19 53.5z" />
<glyph unicode="s" d="M-160 750q0 -26 20 -45t50 -19h307q27 0 47.5 19.5t20.5 44.5v686q0 26 -20.5 46.5t-47.5 20.5h-307q-30 0 -50 -20t-20 -47v-686zM-23 1300q0 27 19.5 47.5t48.5 20.5q28 0 50 -21t22 -47q0 -30 -21.5 -50.5t-50.5 -20.5t-48.5 20t-19.5 51zM354 750q0 -24 19.5 -45 t46.5 -27q25 0 82.5 -62t103.5 -124q37 -49 111 -132q20 -20 33.5 -50.5t18.5 -50.5t13 -64q9 -47 13.5 -66t20 -54t38.5 -57q18 -18 45 -18q50 0 89.5 11.5t64.5 28t43 43.5t26.5 48.5t13 53t5 47.5t0.5 42q0 40 -10.5 81t-21.5 64t-30 60q-3 7 -12.5 27t-15.5 39h295 q82 0 141 61t59 144q0 96 -53 161q16 53 16 82v9q0 74 -49 137q8 30 8 60.5t-8 62.5q-10 52 -57 102q1 16 1 31q0 101 -52 159q-69 84 -209 84h-139q-179 0 -414 -92q-21 -6 -61.5 -18.5t-65 -18.5t-39.5 -6q-29 0 -49.5 -20t-20.5 -47v-686z" />
<glyph unicode="t" d="M-133 1436q0 -102 1.5 -157.5t8.5 -139t24 -146t46 -112.5q83 -137 225 -205q137 -66 295 -66h14q57 -85 66 -139v-68q0 -68 -51 -137h-84v-65h-70v-201h549v201h-66v65h-88q-55 79 -55 137v82q5 13 14.5 41t17.5 49.5t17 38.5q30 -9 69 -9q37 0 81 8q92 16 157 46 q69 26 121 71t111 122q45 56 62 99t26.5 151.5t9.5 333.5q0 25 -20 45t-45 20h-207v137h-961v-137h-203q-26 0 -45.5 -20t-19.5 -45zM-2 1250v57v57h137q0 -103 6.5 -154t34.5 -129q10 -30 25.5 -61.5t28.5 -54t36.5 -56t36 -49.5t41.5 -53.5t39 -50.5q-95 16 -147.5 40 t-104.5 66q-22 22 -39.5 46t-30.5 44t-23.5 48t-17 46t-11 50.5t-7 48t-3.5 53.5t-1 52zM827 750q17 22 55.5 70t60 75.5t51.5 71.5t53 86q10 24 18 46t13 37t8.5 38t5.5 32t3 37t1 34v42.5v44.5h139v-141q0 -136 -34.5 -218t-98.5 -143q-49 -50 -114.5 -76.5t-160.5 -35.5z " />
<glyph unicode="u" d="M-183 92v16q0 54 5 146q6 106 24 135q15 22 41 42t67.5 40t75 34t93.5 38t92 37q72 29 121 51.5t62 30.5l14 8l6 151q-3 2 -7 6t-15.5 19.5t-21.5 35.5t-20 54.5t-14 75.5q-25 -7 -51.5 27t-26.5 61q-2 22 0 50t15 52.5t34 20.5q-2 26 -6.5 64.5t-6.5 62.5t-1 39 q5 46 29.5 90.5t64 81t98 59t125.5 22.5q133 0 222.5 -77.5t99.5 -175.5q2 -14 0 -39t-6 -62t-6 -65q16 3 27 -10t15.5 -36t6.5 -41.5t2 -35.5q-2 -28 -30 -61.5t-52 -26.5q-4 -41 -14 -75.5t-21 -55t-21.5 -35t-16.5 -20.5l-7 -5l6 -151q39 -24 199 -90q31 -13 92 -37 t93.5 -38t74 -34t67 -40t39.5 -42q18 -29 26 -127q6 -78 6 -146v-34l-1 -82h-1595q-2 36 -3 92z" />
<glyph unicode="v" d="M-205 819q0 -221 110.5 -409.5t299 -299t409.5 -110.5q166 0 318 65.5t262.5 175.5t176 261.5t65.5 316.5q0 166 -65.5 317.5t-176 261.5t-262.5 175t-318 65q-221 0 -409.5 -110t-299 -298.5t-110.5 -410.5zM33 819q0 157 78.5 290t212.5 210.5t290 77.5 q119 0 226.5 -46t185 -123t123 -184t45.5 -225t-45.5 -224.5t-123 -184t-185 -123t-226.5 -45.5q-117 0 -224 45.5t-185.5 123t-125 184.5t-46.5 224zM342 719q0 -15 10 -26t25 -11h340q15 0 26 11t11 26v475q0 15 -11 26t-26 11h-68q-14 0 -24.5 -11t-10.5 -26v-375h-237 q-15 0 -25 -10.5t-10 -24.5v-65z" />
<glyph unicode="w" d="M233 821h168v-821h340v821h224l30 281h-254v145q0 60 19 84.5t92 24.5h141v282h-225q-198 0 -282.5 -92t-84.5 -274v-170h-168v-281z" />
<glyph unicode="x" d="M-256 266q259 -162 563 -162q163 0 309.5 43.5t258.5 119t202.5 176t148.5 216t89 238t31 242.5q0 29 -5 49q107 74 187 188q-104 -44 -211 -53q112 68 162 201q-87 -59 -236 -92q-46 55 -116.5 86.5t-149.5 31.5q-150 0 -255.5 -106.5t-105.5 -257.5q0 -40 9 -84 q-222 6 -419 108.5t-331 272.5q-47 -66 -47 -185q0 -94 41 -174.5t113 -132.5q-111 20 -168 47v-4q0 -130 84 -229t211 -129q-58 -12 -97 -12q-45 0 -63 6q34 -110 126 -179.5t210 -70.5q-196 -156 -449 -156q-59 0 -92 2z" />
<glyph unicode="y" d="M-283 745v594q0 113 93.5 206t205.5 93h1190q112 0 205.5 -93t93.5 -206v-594q0 -112 -93 -204t-206 -92h-745l-445 -449v449q-113 0 -206 92t-93 204z" />
<glyph unicode="z" d="M6 0v993h111v156q0 133 67 245.5t181.5 178t248.5 65.5q135 0 249 -65.5t180.5 -178t66.5 -245.5v-156h113v-993h-1217zM340 993h551v156q0 109 -82.5 189.5t-194.5 80.5t-193 -80.5t-81 -189.5v-156zM510 221h182l-47 254q47 28 47 78q0 38 -27 65t-65 27 q-37 0 -63.5 -27t-26.5 -65q0 -53 45 -78z" />
<glyph unicode="&#xa0;" />
<glyph unicode="&#x2000;" horiz-adv-x="951" />
<glyph unicode="&#x2001;" horiz-adv-x="1903" />
<glyph unicode="&#x2002;" horiz-adv-x="951" />
<glyph unicode="&#x2003;" horiz-adv-x="1903" />
<glyph unicode="&#x2004;" horiz-adv-x="634" />
<glyph unicode="&#x2005;" horiz-adv-x="475" />
<glyph unicode="&#x2006;" horiz-adv-x="317" />
<glyph unicode="&#x2007;" horiz-adv-x="317" />
<glyph unicode="&#x2008;" horiz-adv-x="237" />
<glyph unicode="&#x2009;" horiz-adv-x="380" />
<glyph unicode="&#x200a;" horiz-adv-x="105" />
<glyph unicode="&#x202f;" horiz-adv-x="380" />
<glyph unicode="&#x205f;" horiz-adv-x="475" />
<glyph unicode="&#x25fc;" horiz-adv-x="1546" d="M0 0v1546h1546v-1546h-1546z" />
</font>
</defs>
</svg>
